<svg width="62" height="62" viewBox="0 0 62 62" fill="none" xmlns="http://www.w3.org/2000/svg">
<circle cx="30.75" cy="30.75" r="30.75" fill="#fff3ed"/>
<g clip-path="url(#clip0_262_4725)">
<path d="M40.4394 29.4455C40.4394 37.3732 30.2466 44.1684 30.2466 44.1684C30.2466 44.1684 20.0538 37.3732 20.0538 29.4455C20.0538 26.7422 21.1277 24.1496 23.0392 22.2381C24.9508 20.3266 27.5433 19.2527 30.2466 19.2527C32.9499 19.2527 35.5425 20.3266 37.454 22.2381C39.3656 24.1496 40.4394 26.7422 40.4394 29.4455Z" stroke="#FD6616" stroke-width="2.26507" stroke-linecap="round" stroke-linejoin="round"/>
<path d="M30.2466 32.8431C32.123 32.8431 33.6442 31.3219 33.6442 29.4455C33.6442 27.569 32.123 26.0479 30.2466 26.0479C28.3702 26.0479 26.849 27.569 26.849 29.4455C26.849 31.3219 28.3702 32.8431 30.2466 32.8431Z" stroke="#FD6616" stroke-width="2.26507" stroke-linecap="round" stroke-linejoin="round"/>
</g>
<defs>
<clipPath id="clip0_262_4725">
<rect width="27.1808" height="27.1808" fill="white" transform="translate(16.6562 18.1201)"/>
</clipPath>
</defs>
</svg>
