<svg width="24" height="24" viewBox="0 0 24 24" fill="none" xmlns="http://www.w3.org/2000/svg">
<mask id="mask0_40_2560" style="mask-type:alpha" maskUnits="userSpaceOnUse" x="0" y="0" width="24" height="24">
<rect width="24" height="24" fill="#D9D9D9"/>
</mask>
<g mask="url(#mask0_40_2560)">
<path d="M4.00037 20C3.45037 20 2.97953 19.8042 2.58787 19.4125C2.1962 19.0208 2.00037 18.55 2.00037 18V6C2.00037 5.45 2.1962 4.97917 2.58787 4.5875C2.97953 4.19583 3.45037 4 4.00037 4H20.0004C20.5504 4 21.0212 4.19583 21.4129 4.5875C21.8045 4.97917 22.0004 5.45 22.0004 6V18C22.0004 18.55 21.8045 19.0208 21.4129 19.4125C21.0212 19.8042 20.5504 20 20.0004 20H4.00037ZM12.0004 13L20.0004 8V6L12.0004 11L4.00037 6V8L12.0004 13Z" fill="#FD6616"/>
</g>
</svg>
