<svg width="60" height="60" viewBox="0 0 60 60" fill="none" xmlns="http://www.w3.org/2000/svg">
<circle cx="30" cy="30" r="30" fill="#fff3ed"/>
<path d="M40.716 35.2721V38.4864C40.7173 38.7848 40.6561 39.0801 40.5366 39.3535C40.4171 39.6269 40.2417 39.8723 40.0218 40.0741C39.802 40.2758 39.5424 40.4294 39.2597 40.525C38.977 40.6206 38.6775 40.6561 38.3803 40.6292C35.0834 40.271 31.9164 39.1444 29.1339 37.3399C26.5451 35.6949 24.3503 33.5001 22.7053 30.9114C20.8946 28.1162 19.7677 24.9339 19.416 21.6221C19.3893 21.3258 19.4245 21.0272 19.5194 20.7452C19.6144 20.4633 19.767 20.2042 19.9676 19.9845C20.1681 19.7648 20.4123 19.5893 20.6844 19.4691C20.9565 19.3489 21.2507 19.2866 21.5482 19.2864H24.7625C25.2824 19.2812 25.7865 19.4654 26.1808 19.8044C26.575 20.1435 26.8326 20.6143 26.9053 21.1292C27.041 22.1579 27.2926 23.1679 27.6553 24.1399C27.7995 24.5234 27.8307 24.9402 27.7452 25.3409C27.6598 25.7416 27.4613 26.1093 27.1732 26.4006L25.8125 27.7614C27.3377 30.4437 29.5587 32.6647 32.241 34.1899L33.6018 32.8292C33.8931 32.5411 34.2609 32.3426 34.6615 32.2572C35.0622 32.1717 35.479 32.2029 35.8625 32.3471C36.8346 32.7098 37.8445 32.9614 38.8732 33.0971C39.3937 33.1705 39.869 33.4327 40.2088 33.8337C40.5485 34.2347 40.7291 34.7466 40.716 35.2721Z" stroke="#FD6616" stroke-width="2.14286" stroke-linecap="round" stroke-linejoin="round"/>
</svg>
