<svg width="24" height="24" viewBox="0 0 24 24" fill="none" xmlns="http://www.w3.org/2000/svg">
<mask id="mask0_40_2565" style="mask-type:alpha" maskUnits="userSpaceOnUse" x="0" y="0" width="24" height="24">
<rect width="24" height="24" fill="#D9D9D9"/>
</mask>
<g mask="url(#mask0_40_2565)">
<path d="M20.7801 11.4531L16.528 20.0931C16.3821 20.3903 16.1659 20.6511 15.9052 20.8499L14.775 21.71C14.5228 21.9024 14.2238 22 13.9212 22C13.7072 22 13.4918 21.9508 13.2906 21.8511C12.806 21.6102 12.5048 21.1228 12.5027 20.5791L12.497 19.154C12.4949 18.8262 12.5707 18.4941 12.7174 18.1977L16.9695 9.55763C17.221 9.046 17.656 8.66334 18.1945 8.48092C18.7309 8.29779 19.3077 8.33698 19.8171 8.58995C20.8672 9.11227 21.2994 10.3978 20.7801 11.4538V11.4531ZM13.8468 12.6887L11.4469 17.5642C11.2117 18.0423 11.0884 18.5739 11.0835 19.1019H6.12567C4.95655 19.1019 4 18.14 4 16.9642V4.13774C4 2.96198 4.95655 2 6.12567 2H15.3369C16.5061 2 17.4626 2.96198 17.4626 4.13774V7.25528C16.6981 7.58948 16.0731 8.16454 15.6997 8.92415L14.4349 11.4937C14.3053 11.354 14.1239 11.2628 13.9198 11.2628H7.54279C7.15308 11.2628 6.83423 11.5835 6.83423 11.9754C6.83423 12.3673 7.15308 12.688 7.54279 12.688L13.8468 12.6887ZM6.83423 6.27548C6.83423 6.6674 7.15308 6.98806 7.54279 6.98806H13.9198C14.3095 6.98806 14.6284 6.6674 14.6284 6.27548C14.6284 5.88356 14.3095 5.5629 13.9198 5.5629H7.54279C7.15308 5.5629 6.83423 5.88356 6.83423 6.27548ZM6.83423 9.12581C6.83423 9.51773 7.15308 9.83839 7.54279 9.83839H13.9198C14.3095 9.83839 14.6284 9.51773 14.6284 9.12581C14.6284 8.73389 14.3095 8.41323 13.9198 8.41323H7.54279C7.15308 8.41323 6.83423 8.73389 6.83423 9.12581ZM12.5027 14.8265C12.5027 14.4345 12.1838 14.1139 11.7941 14.1139H7.54279C7.15308 14.1139 6.83423 14.4345 6.83423 14.8265C6.83423 15.2184 7.15308 15.539 7.54279 15.539H11.7941C12.1838 15.539 12.5027 15.2184 12.5027 14.8265Z" fill="#FD6616"/>
</g>
</svg>
